<?xml version="1.0" standalone="no"?><!DOCTYPE svg PUBLIC "-//W3C//DTD SVG 1.1//EN" "http://www.w3.org/Graphics/SVG/1.1/DTD/svg11.dtd"><svg width="16" height="16" viewBox="0 0 16 16" version="1.1" xmlns="http://www.w3.org/2000/svg" xmlns:xlink="http://www.w3.org/1999/xlink"><g class="transform-group"><g transform="scale(0.015625, 0.015625)"><path d="M511.736499 64.4775c-246.457158 0-447.121364 200.541409-447.121364 447.121364 0 246.580978 200.63146 447.088618 447.121364 447.088618 246.553349 0 447.121364-200.506617 447.121364-447.088618C958.858886 265.018909 758.316453 64.4775 511.736499 64.4775L511.736499 64.4775zM511.736499 902.715703c-215.72625 0-391.178237-175.48064-391.178237-391.149585 0-215.790718 175.450964-391.208936 391.178237-391.208936 215.72625 0 391.214053 175.417195 391.214053 391.208936C902.977157 727.233016 727.463772 902.715703 511.736499 902.715703L511.736499 902.715703zM552.385291 451.746708l-81.297584 0c-11.235902 0-20.319791 9.106402-20.319791 20.319791l0 43.073005 0 14.3488 0 189.726086c0 11.213389 9.091052 20.319791 20.320814 20.319791l81.297584 0c11.234879 0 20.319791-9.106402 20.319791-20.319791L572.706105 529.488303l0-14.3488 0-43.073005C572.706105 460.852086 563.615053 451.746708 552.385291 451.746708zM447.352119 348.014158c0 35.558867 28.826536 64.385403 64.384379 64.385403 35.55989 0 64.386426-28.826536 64.386426-64.385403s-28.826536-64.385403-64.386426-64.385403C476.177632 283.628756 447.352119 312.455291 447.352119 348.014158L447.352119 348.014158z" fill="#272636"></path></g></g></svg>