<svg viewBox="0 0 1024 1024" version="1.1" xmlns="http://www.w3.org/2000/svg" xmlns:xlink="http://www.w3.org/1999/xlink" width="200" height="200"><path d="M583.744 259.744l-35.2 60.928c-7.36-0.448-14.752-0.672-22.208-0.672-156.48 0-289.152 76.544-364.288 192H87.776c81.408-152.256 244.48-256 438.784-256 19.296 0 38.4 1.28 57.184 3.744z m126.752 36.448c96.096 43.648 176.576 120.16 226.56 215.808h-73.792c-44.704-70.976-109.568-127.232-184.96-160.032l32.192-55.776zM348.064 667.936l-32.192 55.744A481.28 481.28 0 0 1 87.776 512h74.272a418.688 418.688 0 0 0 186.016 155.936z m128.512 33.44c16.288 1.728 32.896 2.624 49.76 2.624 138.08 0 264.192-76.544 336.96-192h73.76c-79.552 152.256-236.416 256-410.496 256-28.96 0-57.184-2.304-84.576-6.72l34.56-59.904z m-55.808-159.36a96.032 96.032 0 0 1 71.584-124l-71.584 123.968z m182.464-60a96.032 96.032 0 0 1-71.584 124l71.584-124z m41.024-263.072a31.968 31.968 0 0 1 43.744-11.776c15.296 8.832 20.672 28.16 11.68 43.776l-319.936 554.112a31.968 31.968 0 0 1-43.744 11.776 31.84 31.84 0 0 1-11.68-43.776l319.936-554.112z" fill=""></path></svg>