<svg viewBox="0 0 1024 1024" version="1.1" xmlns="http://www.w3.org/2000/svg" xmlns:xlink="http://www.w3.org/1999/xlink" width="200" height="200"><path d="M87.776 512c81.408-152.256 244.48-256 438.784-256 174.08 0 330.944 103.744 410.496 256h-73.792c-72.736-115.456-198.848-192-336.928-192-156.48 0-289.152 76.544-364.288 192H87.776zM87.776 512c81.408 152.256 244.48 256 438.784 256 174.08 0 330.944-103.744 410.496-256h-73.792c-72.736 115.456-198.848 192-336.928 192-156.48 0-289.152-76.544-364.288-192H87.776z" fill=""></path><path d="M512 608a96 96 0 1 1 0-192 96 96 0 0 1 0 192z m0-64a32 32 0 1 0 0-64 32 32 0 0 0 0 64z" fill=""></path></svg>