<?xml version="1.0" encoding="UTF-8"?>
<svg width="32px" height="32px" viewBox="0 0 32 32" version="1.1" xmlns="http://www.w3.org/2000/svg" xmlns:xlink="http://www.w3.org/1999/xlink">
    <g>
        <g transform="translate(-349.000000, -3080.000000)">
            <g id="Group-29-Copy" transform="translate(337.000000, 3080.000000)">
                <g id="筛选" transform="translate(12.000000, 0.000000)">
                    <g transform="translate(2.000000, 2.000000)" id="Combined-Shape">
                        <path d="M14,0 C21.7233333,0 28,6.27666667 28,14 C28,21.7233333 21.7233333,28 14,28 C6.27666667,28 0,21.7233333 0,14 C0,6.27666667 6.27666667,0 14,0 Z M14,26 C20.624,26 26,20.624 26,14 C26,7.376 20.624,2 14,2 C7.376,2 2,7.376 2,14 C2,20.624 7.376,26 14,26 Z M18,11.5 C18,10.6715729 18.6715729,10 19.5,10 C20.3284271,10 21,10.6715729 21,11.5 C21,12.3284271 20.3284271,13 19.5,13 C18.6715729,13 18,12.3284271 18,11.5 Z M7,11.5 C7,10.6715729 7.67157288,10 8.5,10 C9.32842712,10 10,10.6715729 10,11.5 C10,12.3284271 9.32842712,13 8.5,13 C7.67157288,13 7,12.3284271 7,11.5 Z M18.92,16.76 C19.38,17.06 19.52,17.68 19.22,18.14 C18.08,19.94 16.12,21 14,21 C11.88,21 9.92,19.94 8.78,18.14 C8.48,17.68 8.62,17.06 9.08,16.76 C9.54,16.46 10.16,16.6 10.46,17.06 C11.24,18.28 12.56,19 14,19 C15.44,19 16.76,18.28 17.54,17.06 C17.84,16.6 18.46,16.46 18.92,16.76 Z"></path>
                    </g>
                </g>
            </g>
        </g>
    </g>
</svg>