<svg viewBox="0 0 1024 1024" version="1.1" xmlns="http://www.w3.org/2000/svg" xmlns:xlink="http://www.w3.org/1999/xlink" width="200" height="200"><path d="M480 480V288a32 32 0 0 1 64 0v192h192a32 32 0 0 1 0 64h-192v192a32 32 0 0 1-64 0v-192H288a32.64 32.64 0 0 1-32-32 32 32 0 0 1 32-32h192z m32-416a448 448 0 0 1 448 448c0 247.424-200.576 448-448 448S64 759.424 64 512 264.576 64 512 64z m0 832a384 384 0 0 0 384-384c0-212.064-171.936-384-384-384S128 299.936 128 512s171.936 384 384 384z"></path></svg>