<svg viewBox="0 0 1024 1024" version="1.1" xmlns="http://www.w3.org/2000/svg" xmlns:xlink="http://www.w3.org/1999/xlink" width="200" height="200"><path d="M809.6 422.4l-198.4-19.2-70.4-172.8c0-3.2-3.2-3.2-3.2-6.4s-3.2-6.4-6.4-6.4c-3.2-3.2-3.2-6.4-6.4-6.4-3.2-3.2-6.4-3.2-9.6-3.2-9.6 0-16 3.2-19.2 6.4-3.2 6.4-9.6 9.6-9.6 19.2l-73.6 172.8-198.4 19.2c-3.2 0-9.6 3.2-12.8 6.4-6.4 3.2-9.6 6.4-9.6 12.8s0 12.8 3.2 19.2c3.2 6.4 6.4 9.6 12.8 16l6.4 6.4 16 12.8c9.6 6.4 16 12.8 25.6 19.2l25.6 22.4c19.2 16 41.6 38.4 67.2 57.6l-22.4 89.6c-3.2 12.8-6.4 22.4-9.6 35.2-3.2 9.6-6.4 22.4-6.4 32-3.2 9.6-3.2 16-6.4 22.4l-3.2 12.8v12.8c3.2 3.2 3.2 6.4 6.4 9.6 3.2 3.2 6.4 3.2 12.8 6.4h3.2c3.2 0 6.4 0 9.6-3.2 3.2 0 6.4-3.2 12.8-6.4s12.8-6.4 22.4-12.8c9.6-6.4 19.2-9.6 28.8-16 9.6-6.4 22.4-12.8 32-19.2 25.6-12.8 51.2-28.8 83.2-48l166.4 99.2 9.6 3.2c3.2 0 6.4 3.2 9.6 3.2 6.4 0 12.8 0 16-3.2 6.4-3.2 6.4-9.6 6.4-16 0-3.2 0-6.4-3.2-12.8l-6.4-25.6c-3.2-9.6-3.2-19.2-6.4-32s-3.2-22.4-6.4-35.2c-6.4-28.8-12.8-57.6-19.2-92.8l131.2-121.6c6.4-6.4 9.6-12.8 12.8-16 3.2-3.2 6.4-9.6 6.4-16s-3.2-9.6-6.4-12.8c0-6.4-6.4-9.6-12.8-12.8z"></path></svg>