<svg class="icon" style="" viewBox="0 0 1024 1024" version="1.1">
  <path d="M793.6 358.4C768 227.2 652.8 128 512 128s-256 99.2-281.6 230.4C134.4 384 64 473.6 64 576c0 124.8 99.2 224 224 224h32v-64H288c-89.6 0-160-70.4-160-160s70.4-160 160-160c0-124.8 99.2-224 224-224s224 99.2 224 224c89.6 0 160 70.4 160 160s-70.4 160-160 160h-32v64h32c124.8 0 224-99.2 224-224 0-102.4-70.4-192-166.4-217.6z"></path>
  <path d="M540.8 489.6c-12.8-9.6-25.6-12.8-38.4-6.4-3.2 0-6.4 3.2-9.6 6.4l-96 92.8c-12.8 12.8-12.8 32 0 44.8 12.8 12.8 35.2 12.8 48 0l38.4-35.2V864c0 19.2 16 32 32 32 19.2 0 32-16 32-32v-272l38.4 35.2c12.8 12.8 35.2 12.8 48 0 12.8-12.8 12.8-32 0-44.8l-92.8-92.8z"></path>
</svg>