<?xml version="1.0" standalone="no"?><!DOCTYPE svg PUBLIC "-//W3C//DTD SVG 1.1//EN" "http://www.w3.org/Graphics/SVG/1.1/DTD/svg11.dtd"><svg width="200" height="200" viewBox="0 0 200 200" version="1.1" xmlns="http://www.w3.org/2000/svg" xmlns:xlink="http://www.w3.org/1999/xlink"><g class="transform-group"><g transform="scale(0.1953125, 0.1953125)"><path d="M723.776 440.512 536.768 512l186.944 71.488c47.616 18.368 75.136 33.024 82.496 44.032 7.296 11.008 11.008 22.016 11.008 33.024 0 29.376-5.568 45.888-16.704 49.472-11.072 3.712-22.208 5.504-33.28 5.504-11.2 0-22.272-2.752-33.344-8.256-11.136-5.504-24.064-13.76-38.848-24.768L523.072 528.512l38.912 230.976c3.648 11.008 5.504 21.12 5.504 30.272 0 9.216 0 15.616 0 19.264 0 22.016-5.504 37.632-16.64 46.72C539.712 864.96 526.784 869.504 512 869.504c-11.328 0-23.552-3.648-36.8-11.008-13.248-7.296-19.776-23.808-19.776-49.472 0-7.296 0.96-14.656 2.816-22.016 1.92-7.296 2.816-16.512 2.816-27.52l45.184-230.976-175.232 153.984c-11.328 7.36-23.552 14.656-36.8 22.016-13.248 7.36-25.408 11.008-36.672 11.008-11.328 0-22.592-3.648-33.92-11.008-11.328-7.296-16.96-22.016-16.96-44.032 0-14.656 5.504-27.52 16.512-38.528s36.608-23.808 76.992-38.528L487.296 512 300.288 440.512C274.624 429.504 252.608 419.456 234.304 410.24c-18.368-9.152-27.52-24.768-27.52-46.72 0-18.304 5.504-32.064 16.576-41.28C234.496 313.152 245.504 308.48 256.704 308.48c11.072 0 23.104 2.752 36.096 8.256 12.864 5.504 24.896 13.76 36.096 24.768l172.032 153.984L462.08 264.512c0-11.008-0.96-20.096-2.816-27.52-1.92-7.296-2.752-14.656-2.752-22.016 0-14.656 5.504-28.352 16.64-41.28C484.288 160.96 497.28 154.496 512 154.496c22.656 0 37.568 7.36 45.248 22.016 7.488 14.656 11.328 27.52 11.328 38.528 0 7.36 0 15.616 0 24.768 0 9.216-1.92 17.408-5.696 24.768L517.696 495.488l175.168-153.984c15.04-14.656 28.16-23.808 39.552-27.52 11.328-3.648 22.592-5.504 33.92-5.504 15.04 0 27.264 5.504 36.672 16.512S817.28 348.864 817.28 363.52c0 14.656-3.712 26.624-11.008 35.776C798.848 408.448 771.392 422.208 723.776 440.512z"></path></g></g></svg>
