<?xml version="1.0" encoding="UTF-8"?><!DOCTYPE svg PUBLIC "-//W3C//DTD SVG 1.1//EN" "http://www.w3.org/Graphics/SVG/1.1/DTD/svg11.dtd"><svg xmlns="http://www.w3.org/2000/svg" xmlns:xlink="http://www.w3.org/1999/xlink"><symbol id="angle-down" viewBox="0 0 24 24"><g id="expand-more"><polygon points="16.6,8.6 12,13.2 7.4,8.6 6,10 12,16 18,10 "/></g></symbol><symbol id="angle-left" viewBox="0 0 24 24"><g id="chevron-left"><polygon points="15.4,7.4 14,6 8,12 14,18 15.4,16.6 10.8,12 "/></g></symbol><symbol id="angle-right" viewBox="0 0 24 24"><g id="chevron-right"><polygon points="10,6 8.6,7.4 13.2,12 8.6,16.6 10,18 16,12 "/></g></symbol><symbol id="angle-up" viewBox="0 0 24 24"><g id="expand-less"><polygon points="12,8 6,14 7.4,15.4 12,10.8 16.6,15.4 18,14 "/></g></symbol><symbol id="check-round" viewBox="0 0 24 24"><g id="check-circle"><path d="M12,2C6.5,2,2,6.5,2,12c0,5.5,4.5,10,10,10c5.5,0,10-4.5,10-10C22,6.5,17.5,2,12,2z M10,17l-5-5l1.4-1.4l3.6,3.6l7.6-7.6L19,8L10,17z"/></g></symbol><symbol id="check" viewBox="0 0 24 24"><g id="check"><polygon points="9,16.2 4.8,12 3.4,13.4 9,19 21,7 19.6,5.6 "/></g></symbol><symbol id="cross-round" viewBox="0 0 24 24"><g id="cancel"><path d="M12,2C6.5,2,2,6.5,2,12s4.5,10,10,10c5.5,0,10-4.5,10-10S17.5,2,12,2z M17,15.6L15.6,17L12,13.4L8.4,17L7,15.6l3.6-3.6L7,8.4L8.4,7l3.6,3.6L15.6,7L17,8.4L13.4,12L17,15.6z"/></g></symbol><symbol id="cross" viewBox="0 0 24 24"><g id="clear"><polygon points="19,6.4 17.6,5 12,10.6 6.4,5 5,6.4 10.6,12 5,17.6 6.4,19 12,13.4 17.6,19 19,17.6 13.4,12 "/></g></symbol><symbol id="field-required" viewBox="0 0 200 200"><g class="transform-group"><g transform="scale(0.1953125, 0.1953125)"><path d="M723.776 440.512 536.768 512l186.944 71.488c47.616 18.368 75.136 33.024 82.496 44.032 7.296 11.008 11.008 22.016 11.008 33.024 0 29.376-5.568 45.888-16.704 49.472-11.072 3.712-22.208 5.504-33.28 5.504-11.2 0-22.272-2.752-33.344-8.256-11.136-5.504-24.064-13.76-38.848-24.768L523.072 528.512l38.912 230.976c3.648 11.008 5.504 21.12 5.504 30.272 0 9.216 0 15.616 0 19.264 0 22.016-5.504 37.632-16.64 46.72C539.712 864.96 526.784 869.504 512 869.504c-11.328 0-23.552-3.648-36.8-11.008-13.248-7.296-19.776-23.808-19.776-49.472 0-7.296 0.96-14.656 2.816-22.016 1.92-7.296 2.816-16.512 2.816-27.52l45.184-230.976-175.232 153.984c-11.328 7.36-23.552 14.656-36.8 22.016-13.248 7.36-25.408 11.008-36.672 11.008-11.328 0-22.592-3.648-33.92-11.008-11.328-7.296-16.96-22.016-16.96-44.032 0-14.656 5.504-27.52 16.512-38.528s36.608-23.808 76.992-38.528L487.296 512 300.288 440.512C274.624 429.504 252.608 419.456 234.304 410.24c-18.368-9.152-27.52-24.768-27.52-46.72 0-18.304 5.504-32.064 16.576-41.28C234.496 313.152 245.504 308.48 256.704 308.48c11.072 0 23.104 2.752 36.096 8.256 12.864 5.504 24.896 13.76 36.096 24.768l172.032 153.984L462.08 264.512c0-11.008-0.96-20.096-2.816-27.52-1.92-7.296-2.752-14.656-2.752-22.016 0-14.656 5.504-28.352 16.64-41.28C484.288 160.96 497.28 154.496 512 154.496c22.656 0 37.568 7.36 45.248 22.016 7.488 14.656 11.328 27.52 11.328 38.528 0 7.36 0 15.616 0 24.768 0 9.216-1.92 17.408-5.696 24.768L517.696 495.488l175.168-153.984c15.04-14.656 28.16-23.808 39.552-27.52 11.328-3.648 22.592-5.504 33.92-5.504 15.04 0 27.264 5.504 36.672 16.512S817.28 348.864 817.28 363.52c0 14.656-3.712 26.624-11.008 35.776C798.848 408.448 771.392 422.208 723.776 440.512z"/></g></g></symbol><symbol id="info-circle" viewBox="0 0 24 24"><g id="info-outline"><path d="M11,17h2v-6h-2V17z M12,2C6.5,2,2,6.5,2,12s4.5,10,10,10c5.5,0,10-4.5,10-10S17.5,2,12,2z M12,20c-4.4,0-8-3.6-8-8s3.6-8,8-8c4.4,0,8,3.6,8,8S16.4,20,12,20z M11,9h2V7h-2V9z"/></g></symbol><symbol id="info-round" viewBox="0 0 24 24"><g id="info"><path d="M12,2C6.5,2,2,6.5,2,12s4.5,10,10,10c5.5,0,10-4.5,10-10S17.5,2,12,2z M13,17h-2v-6h2V17z M13,9h-2V7h2V9z"/></g></symbol><symbol id="map" viewBox="0 0 24 24"><g id="place"><path d="M12,2C8.1,2,5,5.1,5,9c0,5.2,7,13,7,13s7-7.8,7-13C19,5.1,15.9,2,12,2z M12,11.5c-1.4,0-2.5-1.1-2.5-2.5s1.1-2.5,2.5-2.5c1.4,0,2.5,1.1,2.5,2.5S13.4,11.5,12,11.5z"/></g></symbol><symbol id="minus-circle" viewBox="0 0 24 24"><g id="unknown-4"><path d="M12,2C6.5,2,2,6.5,2,12s4.5,10,10,10c5.5,0,10-4.5,10-10C22,6.5,17.5,2,12,2z M12,20c-4.4,0-8-3.6-8-8c0-4.4,3.6-8,8-8c4.4,0,8,3.6,8,8C20,16.4,16.4,20,12,20z M8,13h8v-2H8V13z"/></g></symbol><symbol id="minus-round" viewBox="0 0 24 24"><g id="remove-circle"><path d="M12,2C6.5,2,2,6.5,2,12s4.5,10,10,10c5.5,0,10-4.5,10-10S17.5,2,12,2z M17,13H7v-2h10V13z"/></g></symbol><symbol id="note-round" viewBox="0 0 24 24"><g id="error"><path d="M12,2C6.5,2,2,6.5,2,12s4.5,10,10,10c5.5,0,10-4.5,10-10S17.5,2,12,2z M13,17h-2v-2h2V17z M13,13h-2V7h2V13z"/></g></symbol><symbol id="pen" viewBox="0 0 24 24"><g id="create"><path d="M3,17.2V21h3.8L17.8,9.9l-3.8-3.8L3,17.2z M20.7,7c0.4-0.4,0.4-1,0-1.4l-2.3-2.3c-0.4-0.4-1-0.4-1.4,0l-1.8,1.8l3.8,3.8L20.7,7z"/></g></symbol><symbol id="photo" viewBox="0 0 1024 1024"><path d="M896 268H705.62l-72.844-108.877c-7.923-11.82-21.213-19.08-35.443-19.08V140H426.666c-14.192 0-27.456 7.056-35.387 18.83L317.88 268H128c-23.564 0-42.668 19.104-42.668 42.667v554.667C85.332 888.9 104.436 908 128 908h768c23.564 0 42.666-19.1 42.666-42.666V310.667c0-23.563-19.1-42.667-42.667-42.667zm0 597.333H128V310.666h213.333l85.333-128h170.667l85.333 128H896v554.667zM512 396c-106.037 0-192 85.963-192 192 0 106.043 85.963 192 192 192 106.043 0 192-85.957 192-192 0-106.037-85.957-192-192-192zm0 341.333c-82.475 0-149.333-66.856-149.333-149.333 0-82.475 66.86-149.333 149.333-149.333 82.477 0 149.333 66.86 149.333 149.333 0 82.477-66.856 149.333-149.333 149.333zm213.333-362.666H832v42.667H725.333v-42.667z"/></symbol><symbol id="plus-circle" viewBox="0 0 24 24"><g id="unknown-3"><path d="M13,8h-2v3H8v2h3v3h2v-3h3v-2h-3V8z M12,2C6.5,2,2,6.5,2,12s4.5,10,10,10c5.5,0,10-4.5,10-10C22,6.5,17.5,2,12,2z M12,20c-4.4,0-8-3.6-8-8c0-4.4,3.6-8,8-8c4.4,0,8,3.6,8,8C20,16.4,16.4,20,12,20z"/></g></symbol><symbol id="plus-round" viewBox="0 0 24 24"><g id="add-circle"><path d="M12,2C6.5,2,2,6.5,2,12s4.5,10,10,10c5.5,0,10-4.5,10-10S17.5,2,12,2z M17,13h-4v4h-2v-4H7v-2h4V7h2v4h4V13z"/></g></symbol><symbol id="plus" viewBox="0 0 24 24"><g id="add"><path d="M19,13h-6v6h-2v-6H5v-2h6V5h2v6h6V13z"/></g></symbol><symbol id="search" viewBox="0 0 24 24"><g id="search"><path d="M15.5,14h-0.8l-0.3-0.3c1-1.1,1.6-2.6,1.6-4.2C16,5.9,13.1,3,9.5,3C5.9,3,3,5.9,3,9.5S5.9,16,9.5,16c1.6,0,3.1-0.6,4.2-1.6l0.3,0.3v0.8l5,5l1.5-1.5L15.5,14z M9.5,14C7,14,5,12,5,9.5S7,5,9.5,5C12,5,14,7,14,9.5S12,14,9.5,14z"/></g></symbol><symbol id="setting" viewBox="0 0 24 24"><g id="settings"><path d="M19.4,13c0-0.3,0.1-0.6,0.1-1s0-0.7-0.1-1l2.1-1.7c0.2-0.2,0.2-0.4,0.1-0.6l-2-3.5C19.5,5.1,19.3,5,19,5.1l-2.5,1c-0.5-0.4-1.1-0.7-1.7-1l-0.4-2.6C14.5,2.2,14.2,2,14,2h-4C9.8,2,9.5,2.2,9.5,2.4L9.1,5.1C8.5,5.3,8,5.7,7.4,6.1L5,5.1C4.7,5,4.5,5.1,4.3,5.3l-2,3.5C2.2,8.9,2.3,9.2,2.5,9.4L4.6,11c0,0.3-0.1,0.6-0.1,1s0,0.7,0.1,1l-2.1,1.7c-0.2,0.2-0.2,0.4-0.1,0.6l2,3.5C4.5,18.9,4.7,19,5,18.9l2.5-1c0.5,0.4,1.1,0.7,1.7,1l0.4,2.6c0,0.2,0.2,0.4,0.5,0.4h4c0.2,0,0.5-0.2,0.5-0.4l0.4-2.6c0.6-0.3,1.2-0.6,1.7-1l2.5,1c0.2,0.1,0.5,0,0.6-0.2l2-3.5c0.1-0.2,0.1-0.5-0.1-0.6L19.4,13z M12,15.5c-1.9,0-3.5-1.6-3.5-3.5s1.6-3.5,3.5-3.5s3.5,1.6,3.5,3.5S13.9,15.5,12,15.5z"/></g></symbol><symbol id="star" viewBox="0 0 24 24"><g id="star"><polygon points="12,17.273 18.18,21 16.545,13.971 22,9.244 14.809,8.627 12,2 9.191,8.627 2,9.244 7.455,13.971 5.82,21 "/></g></symbol><symbol id="time" viewBox="0 0 24 24"><g id="schedule"><path fill-opacity="0.9" d="M12,2C6.5,2,2,6.5,2,12s4.5,10,10,10c5.5,0,10-4.5,10-10S17.5,2,12,2z M12,20c-4.4,0-8-3.6-8-8s3.6-8,8-8c4.4,0,8,3.6,8,8S16.4,20,12,20z"/><polygon fill-opacity="0.9" points="12.5,7 11,7 11,13 16.2,16.2 17,14.9 12.5,12.2 "/></g></symbol><symbol id="toast-error" viewBox="0 0 24 24"><g id="clear"><polygon points="19,6.4 17.6,5 12,10.6 6.4,5 5,6.4 10.6,12 5,17.6 6.4,19 12,13.4 17.6,19 19,17.6 13.4,12 "/></g></symbol><symbol id="toast-fail" viewBox="0 0 108.364 108.364">
<g>
	<g>
		<path d="M54.182,0C24.258,0,0,24.258,0,54.182c0,29.924,24.258,54.183,54.182,54.183c29.923,0,54.182-24.259,54.182-54.183
			C108.364,24.258,84.105,0,54.182,0z M68.713,33.622c3.424,0,6.201,2.777,6.201,6.201c0,3.426-2.777,6.203-6.201,6.203
			c-3.423,0-6.203-2.777-6.203-6.203C62.51,36.399,65.29,33.622,68.713,33.622z M40.594,33.622c3.423,0,6.2,2.777,6.2,6.201
			c0,3.426-2.777,6.203-6.2,6.203c-3.423,0-6.201-2.777-6.201-6.203C34.393,36.399,37.17,33.622,40.594,33.622z M76.607,79.098
			c-1.521,0.66-3.286-0.041-3.944-1.562c-2.894-6.689-9.731-11.012-17.421-11.012c-7.868,0-14.747,4.32-17.523,11.005
			c-0.479,1.153-1.596,1.85-2.771,1.85c-0.384,0-0.773-0.073-1.15-0.229c-1.53-0.637-2.255-2.393-1.62-3.922
			c3.71-8.932,12.764-14.703,23.064-14.703c10.084,0,19.084,5.742,22.928,14.63C78.828,76.674,78.128,78.439,76.607,79.098z"/>
	</g>
</g>
<g>
</g>
<g>
</g>
<g>
</g>
<g>
</g>
<g>
</g>
<g>
</g>
<g>
</g>
<g>
</g>
<g>
</g>
<g>
</g>
<g>
</g>
<g>
</g>
<g>
</g>
<g>
</g>
<g>
</g>
</symbol><symbol id="toast-loading" viewBox="0 0 399.389 399.389">
<g>
	<path d="M340.896,58.489C303.18,20.773,253.031,0.001,199.693,0.001c-53.34,0-103.487,20.771-141.204,58.488
		C20.772,96.207,0,146.355,0,199.694c0,53.34,20.772,103.489,58.49,141.206c37.717,37.717,87.864,58.488,141.204,58.488
		c53.339,0,103.486-20.771,141.205-58.488c37.717-37.717,58.49-87.865,58.49-141.206C399.387,146.355,378.613,96.207,340.896,58.489
		z M77.457,199.694c0-67.401,54.835-122.236,122.236-122.236S321.93,132.293,321.93,199.694s-54.836,122.237-122.237,122.237
		S77.457,267.096,77.457,199.694z M328.061,328.063c-34.289,34.287-79.877,53.17-128.368,53.17v-41.147
		c77.413,0,140.389-62.979,140.389-140.391c0-77.412-62.979-140.391-140.389-140.391c-4.593,0-9.134,0.229-13.615,0.662V18.655
		c4.508-0.332,9.049-0.5,13.615-0.5c48.491,0,94.079,18.883,128.368,53.171c34.289,34.289,53.172,79.878,53.172,128.368
		C381.232,248.187,362.35,293.776,328.061,328.063z"/>
</g>
<g>
</g>
<g>
</g>
<g>
</g>
<g>
</g>
<g>
</g>
<g>
</g>
<g>
</g>
<g>
</g>
<g>
</g>
<g>
</g>
<g>
</g>
<g>
</g>
<g>
</g>
<g>
</g>
<g>
</g>
</symbol><symbol id="toast-success" viewBox="0 0 24 24"><g id="check"><polygon points="9,16.2 4.8,12 3.4,13.4 9,19 21,7 19.6,5.6 "/></g></symbol><symbol id="user" viewBox="0 0 24 24"><g id="person"><path d="M12,12c2.2,0,4-1.8,4-4c0-2.2-1.8-4-4-4C9.8,4,8,5.8,8,8C8,10.2,9.8,12,12,12z M12,14c-2.7,0-8,1.3-8,4v2h16v-2C20,15.3,14.7,14,12,14z"/></g></symbol></svg>