<svg viewBox="0 0 1024 1024" version="1.1" xmlns="http://www.w3.org/2000/svg" xmlns:xlink="http://www.w3.org/1999/xlink" width="200" height="200"><path d="M512 960C264.576 960 64 759.424 64 512S264.576 64 512 64s448 200.576 448 448-200.576 448-448 448z m-88.192-336.448l-113.184-113.216a32.096 32.096 0 0 0-45.184 0.096 31.872 31.872 0 0 0-0.096 45.184l135.904 135.904a31.968 31.968 0 0 0 45.216-0.096l316.736-316.736a31.936 31.936 0 0 0 0-45.28 31.936 31.936 0 0 0-45.248 0l-294.144 294.144z" fill=""></path></svg>