<?xml version="1.0" encoding="UTF-8"?>
<svg width="32px" height="32px" viewBox="0 0 32 32" version="1.1" xmlns="http://www.w3.org/2000/svg" xmlns:xlink="http://www.w3.org/1999/xlink">
    <g>
        <g transform="translate(-649.000000, -3080.000000)">
            <g id="Group-29-Copy-4" transform="translate(631.000000, 3080.000000)">
                <g id="筛选" transform="translate(18.000000, 0.000000)">
                    <g transform="translate(2.000000, 2.000000)" id="Combined-Shape">
                        <path d="M14,0 C21.7233333,0 28,6.27666667 28,14 C28,21.7233333 21.7233333,28 14,28 C6.27666667,28 0,21.7233333 0,14 C0,6.27666667 6.27666667,0 14,0 Z M18,11.5 C18,12.3284271 18.6715729,13 19.5,13 C20.3284271,13 21,12.3284271 21,11.5 C21,10.6715729 20.3284271,10 19.5,10 C18.6715729,10 18,10.6715729 18,11.5 Z M7,11.5 C7,12.3284271 7.67157288,13 8.5,13 C9.32842712,13 10,12.3284271 10,11.5 C10,10.6715729 9.32842712,10 8.5,10 C7.67157288,10 7,10.6715729 7,11.5 Z M18.92,20.8414703 C19.38,20.5414703 19.52,19.9214703 19.22,19.4614703 C18.08,17.6614703 16.12,16.6014703 14,16.6014703 C11.88,16.6014703 9.92,17.6614703 8.78,19.4614703 C8.48,19.9214703 8.62,20.5414703 9.08,20.8414703 C9.54,21.1414703 10.16,21.0014703 10.46,20.5414703 C11.24,19.3214703 12.56,18.6014703 14,18.6014703 C15.44,18.6014703 16.76,19.3214703 17.54,20.5414703 C17.84,21.0014703 18.46,21.1414703 18.92,20.8414703 Z"></path>
                    </g>
                </g>
            </g>
        </g>
    </g>
</svg>