<svg viewBox="0 0 1024 1024" version="1.1" xmlns="http://www.w3.org/2000/svg" width="200" height="200"><path d="M331.008 810.048c-25.024-24.96-24.64-65.92 0.064-90.624l452.352-452.352a63.936 63.936 0 0 1 90.624-0.064c24.96 24.96 24.64 65.856-0.128 90.624l-452.288 452.288a63.936 63.936 0 0 1-90.624 0.128z" fill=""></path><path d="M149.568 628.608a63.552 63.552 0 0 1 0.384-90.112 64 64 0 0 1 90.112-0.384l181.824 181.824a63.552 63.552 0 0 1-0.384 90.112 64 64 0 0 1-90.112 0.384L149.568 628.608z"></path></svg>