<svg xmlns="http://www.w3.org/2000/svg" width="1024" height="1024" viewBox="0 0 1024 1024"><path d="M896 268H705.62l-72.844-108.877c-7.923-11.82-21.213-19.08-35.443-19.08V140H426.666c-14.192 0-27.456 7.056-35.387 18.83L317.88 268H128c-23.564 0-42.668 19.104-42.668 42.667v554.667C85.332 888.9 104.436 908 128 908h768c23.564 0 42.666-19.1 42.666-42.666V310.667c0-23.563-19.1-42.667-42.667-42.667zm0 597.333H128V310.666h213.333l85.333-128h170.667l85.333 128H896v554.667zM512 396c-106.037 0-192 85.963-192 192 0 106.043 85.963 192 192 192 106.043 0 192-85.957 192-192 0-106.037-85.957-192-192-192zm0 341.333c-82.475 0-149.333-66.856-149.333-149.333 0-82.475 66.86-149.333 149.333-149.333 82.477 0 149.333 66.86 149.333 149.333 0 82.477-66.856 149.333-149.333 149.333zm213.333-362.666H832v42.667H725.333v-42.667z"/></svg>
