<?xml version="1.0" encoding="UTF-8"?>
<svg width="32px" height="32px" viewBox="0 0 32 32" version="1.1" xmlns="http://www.w3.org/2000/svg" xmlns:xlink="http://www.w3.org/1999/xlink">
    <g>
        <g transform="translate(-449.000000, -3213.000000)">
            <g id="Group-42" transform="translate(335.000000, 3213.000000)">
                <g id="星标" transform="translate(114.000000, 0.000000)">
                    <g id="评星">
                        <g transform="translate(2.000000, 3.000000)" id="Shape">
                            <path d="M6.66937305,26 C7.00612612,26 7.34262521,25.9217713 7.6473126,25.765131 L13.9992686,22.4867308 L20.3522723,25.765131 C20.6580392,25.9217713 20.9948241,26 21.3303706,26 C21.7385254,26 22.1465532,25.8837065 22.4958467,25.6550143 C23.1267786,25.2373678 23.4495308,24.5213805 23.3231412,23.8070061 L22.085057,16.719917 L27.4260553,11.6085703 C27.9549167,11.1044795 28.1359131,10.3647894 27.8951031,9.69298287 C27.6535629,9.02233254 27.0319333,8.53269483 26.2836283,8.4254991 L18.9977358,7.38661638 L15.8301551,1.08540621 C15.4981325,0.423518965 14.7843062,0 13.9992686,0 C13.2168027,0 12.5025001,0.423518965 12.1691123,1.08540621 L9.00232545,7.38655557 L1.71611535,8.42543829 C0.967365983,8.53263402 0.345736387,9.02227173 0.104640616,9.69292205 C-0.136137665,10.3647286 0.0460334555,11.1044187 0.574609116,11.6085094 L5.91335335,16.7198562 L4.67491986,23.8070061 C4.55024471,24.5213805 4.87248886,25.2373678 5.50484934,25.6550143 C5.85274604,25.8837065 6.26074206,26 6.66937305,26 Z M9.0873076,9.36062755 L10.3341892,9.18497219 L10.8815258,8.11232645 L14.0001085,2 L17.1181644,8.11232645 L17.6659658,9.18497219 L18.9126925,9.36062755 L26,10.3557541 L20.8315772,15.2292974 L19.9633731,16.0479193 L20.1654295,17.1902649 L21.3731204,23.9988871 L15.1272805,20.8233849 L13.9987453,20.2492689 L12.8702411,20.8233849 L6.62452513,24 L7.8322471,17.1904114 L8.03430343,16.0479193 L7.1660374,15.2292974 L2,10.3557541 L9.0873076,9.36062755 Z"></path>
                        </g>
                    </g>
                </g>
            </g>
        </g>
    </g>
</svg>