<svg viewBox="0 0 1024 1024" version="1.1" xmlns="http://www.w3.org/2000/svg" xmlns:xlink="http://www.w3.org/1999/xlink" width="200" height="200"><path d="M512 960C264.576 960 64 759.424 64 512S264.576 64 512 64s448 200.576 448 448-200.576 448-448 448z m0-64c212.064 0 384-171.936 384-384S724.064 128 512 128 128 299.936 128 512s171.936 384 384 384z m-90.496-266.976l294.112-294.144a31.936 31.936 0 0 1 45.28 0 31.936 31.936 0 0 1 0 45.248l-316.768 316.768a31.968 31.968 0 0 1-45.184 0.064L263.04 561.056a31.872 31.872 0 0 1 0.064-45.184 32.096 32.096 0 0 1 45.184-0.064l113.216 113.216z"></path></svg>