<?xml version="1.0" encoding="iso-8859-1"?>
<!-- Generator: Adobe Illustrator 16.0.0, SVG Export Plug-In . SVG Version: 6.00 Build 0)  -->
<!DOCTYPE svg PUBLIC "-//W3C//DTD SVG 1.1//EN" "http://www.w3.org/Graphics/SVG/1.1/DTD/svg11.dtd">
<svg version="1.1" id="Capa_1" xmlns="http://www.w3.org/2000/svg" xmlns:xlink="http://www.w3.org/1999/xlink" x="0px" y="0px"
	 width="108.364px" height="108.364px" viewBox="0 0 108.364 108.364" style="enable-background:new 0 0 108.364 108.364;"
	 xml:space="preserve">
<g>
	<g>
		<path d="M54.182,0C24.258,0,0,24.258,0,54.182c0,29.924,24.258,54.183,54.182,54.183c29.923,0,54.182-24.259,54.182-54.183
			C108.364,24.258,84.105,0,54.182,0z M68.713,33.622c3.424,0,6.201,2.777,6.201,6.201c0,3.426-2.777,6.203-6.201,6.203
			c-3.423,0-6.203-2.777-6.203-6.203C62.51,36.399,65.29,33.622,68.713,33.622z M40.594,33.622c3.423,0,6.2,2.777,6.2,6.201
			c0,3.426-2.777,6.203-6.2,6.203c-3.423,0-6.201-2.777-6.201-6.203C34.393,36.399,37.17,33.622,40.594,33.622z M76.607,79.098
			c-1.521,0.66-3.286-0.041-3.944-1.562c-2.894-6.689-9.731-11.012-17.421-11.012c-7.868,0-14.747,4.32-17.523,11.005
			c-0.479,1.153-1.596,1.85-2.771,1.85c-0.384,0-0.773-0.073-1.15-0.229c-1.53-0.637-2.255-2.393-1.62-3.922
			c3.71-8.932,12.764-14.703,23.064-14.703c10.084,0,19.084,5.742,22.928,14.63C78.828,76.674,78.128,78.439,76.607,79.098z"/>
	</g>
</g>
<g>
</g>
<g>
</g>
<g>
</g>
<g>
</g>
<g>
</g>
<g>
</g>
<g>
</g>
<g>
</g>
<g>
</g>
<g>
</g>
<g>
</g>
<g>
</g>
<g>
</g>
<g>
</g>
<g>
</g>
</svg>
