<?xml version="1.0" standalone="no"?><!DOCTYPE svg PUBLIC "-//W3C//DTD SVG 1.1//EN" "http://www.w3.org/Graphics/SVG/1.1/DTD/svg11.dtd"><svg width="16" height="16" viewBox="0 0 16 16" version="1.1" xmlns="http://www.w3.org/2000/svg" xmlns:xlink="http://www.w3.org/1999/xlink"><g class="transform-group"><g transform="scale(0.015625, 0.015625)"><path d="M512 764.224c-25.408 0-46.016-20.544-46.016-45.952 0-25.408 20.608-46.016 46.016-46.016s46.016 20.544 46.016 46.016C558.016 743.68 537.408 764.224 512 764.224L512 764.224 512 764.224zM512 764.224M512 611.648c-21.248 0-38.528-17.28-38.528-38.528L473.472 284.992c0-21.248 17.28-38.528 38.528-38.528s38.528 17.28 38.528 38.528l0 288.128C550.528 594.368 533.248 611.648 512 611.648L512 611.648zM512 611.648M512 64C264.576 64 64 264.576 64 512s200.576 448 448 448 448-200.576 448-448S759.424 64 512 64L512 64zM512 900.224c-214.08 0-388.288-174.144-388.288-388.224S297.92 123.776 512 123.776 900.288 297.856 900.288 512 726.08 900.224 512 900.224L512 900.224zM512 900.224" fill="#272636"></path></g></g></svg>